<svg xmlns="http://www.w3.org/2000/svg" xmlns:xlink="http://www.w3.org/1999/xlink" width="246" height="246" viewBox="0 0 246 246">
  <defs>
    <filter id="lodo" x="0" y="0" width="246" height="246" filterUnits="userSpaceOnUse">
      <feOffset dy="3" input="SourceAlpha"/>
      <feGaussianBlur stdDeviation="25" result="blur"/>
      <feFlood flood-color="#ff2a3e"/>
      <feComposite operator="in" in2="blur"/>
      <feComposite in="SourceGraphic"/>
    </filter>
  </defs>
  <g id="Лого" transform="translate(12 34)">
    <g id="logo" transform="translate(68 42)">
      <g id="Group_1" data-name="Group 1" transform="translate(14.817 0)">
        <path id="Path_1" data-name="Path 1" d="M62.839,7.716V21.7L50.73,28.686,38.63,21.7V7.716L50.73.73Z" transform="translate(-23.691 -0.73)" fill="#1c1c1c" stroke="#fff" stroke-miterlimit="10" stroke-width="1"/>
        <path id="Path_2" data-name="Path 2" d="M47.529,16.506V30.479L35.42,37.466l-12.1-6.986V16.506L35.42,9.52Z" transform="translate(-23.32 -0.943)" fill="#1c1c1c" stroke="#fff" stroke-miterlimit="10" stroke-width="1"/>
        <path id="Path_3" data-name="Path 3" d="M78.149,16.506V30.479L66.04,37.466l-12.1-6.986V16.506L66.04,9.52Z" transform="translate(-24.062 -0.943)" fill="#1c1c1c" stroke="#fff" stroke-miterlimit="10" stroke-width="1"/>
        <path id="Path_4" data-name="Path 4" d="M62.839,25.286V39.269L50.73,46.256l-12.1-6.986V25.286L50.73,18.3Z" transform="translate(-23.691 -1.276)" fill="#1c1c1c" stroke="#fff" stroke-miterlimit="10" stroke-width="1"/>
        <path id="Path_5" data-name="Path 5" d="M78.149,69.806V83.779l-12.109,7-12.1-7V69.806l12.1-6.986Z" transform="translate(-24.062 -2.719)" fill="#1c1c1c" stroke="#fff" stroke-miterlimit="10" stroke-width="1"/>
        <path id="Path_6" data-name="Path 6" d="M78.149,52.126V66.109L66.04,73.1l-12.1-6.986V52.126l12.1-6.986Z" transform="translate(-24.062 -2.111)" fill="#1c1c1c" stroke="#fff" stroke-miterlimit="10" stroke-width="1"/>
        <path id="Path_7" data-name="Path 7" d="M23.32,69.557V83.529l12.1,6.986,12.109-6.986V69.557L35.42,62.57Z" transform="translate(-23.32 -2.713)" fill="#1c1c1c" stroke="#fff" stroke-miterlimit="10" stroke-width="1"/>
        <path id="Path_8" data-name="Path 8" d="M23.32,51.876V65.859l12.1,6.986,12.109-6.986V51.876L35.42,44.89Z" transform="translate(-23.32 -2.103)" fill="#1c1c1c" stroke="#fff" stroke-miterlimit="10" stroke-width="1"/>
        <path id="Path_9" data-name="Path 9" d="M38.63,78.336V92.319l12.1,6.986,12.109-6.986V78.336L50.73,71.35Z" transform="translate(-23.691 -2.926)" fill="#1c1c1c" stroke="#fff" stroke-miterlimit="10" stroke-width="1"/>
        <path id="Path_10" data-name="Path 10" d="M38.63,60.666V74.639l12.1,6.986,12.109-6.986V60.666L50.73,53.68Z" transform="translate(-23.691 -2.376)" fill="#1c1c1c" stroke="#fff" stroke-miterlimit="10" stroke-width="1"/>
      </g>
      <path id="Path_11" data-name="Path 11" d="M49.855,63.02,22.9,47.505V82.447L8,73.88V24.916L20.071,17.93,49.855,35.074l29.794-16.9L91.711,25.16V74.124L76.819,82.691V47.73Z" transform="translate(-8 -2.213)" fill="#ff2337" stroke="#fff" stroke-miterlimit="10" stroke-width="1"/>
    </g>
    <g transform="matrix(1, 0, 0, 1, -12, -34)" filter="url(#lodo)">
      <g id="lodo-2" data-name="lodo" transform="translate(75 72)" fill="#6889e8" opacity="0.05">
        <path d="M 48 95.5 C 41.58732604980469 95.5 35.36672592163086 94.24417877197266 29.51101303100586 91.76742553710938 C 23.85479927062988 89.37505340576172 18.77491188049316 85.95005035400391 14.41242504119873 81.58757781982422 C 10.04994964599609 77.22509002685547 6.624949932098389 72.14520263671875 4.232574939727783 66.48899078369141 C 1.755825042724609 60.63327407836914 0.5 54.41267395019531 0.5 48 C 0.5 44.11603927612305 0.9700624942779541 40.25631332397461 1.897137522697449 36.52803802490234 C 2.799312591552734 32.89993667602539 4.138599872589111 29.37653732299805 5.877799987792969 26.05572509765625 C 7.589237689971924 22.78792572021484 9.691875457763672 19.70795059204102 12.12728786468506 16.90137481689453 C 14.55438709259033 14.1043872833252 17.31443786621094 11.57597541809082 20.33076286315918 9.386387825012207 C 24.20393753051758 6.574124813079834 28.50589942932129 4.381024837493896 33.1171760559082 2.867974996566772 C 37.90589904785156 1.296700000762939 42.91320037841797 0.5 48 0.5 C 54.41267395019531 0.5 60.63327407836914 1.755825042724609 66.48899078369141 4.232574939727783 C 72.14520263671875 6.624949932098389 77.22509002685547 10.04994964599609 81.58757781982422 14.41242504119873 C 85.95005035400391 18.77491188049316 89.37505340576172 23.85479927062988 91.76742553710938 29.51101303100586 C 94.24417877197266 35.36672592163086 95.5 41.58732604980469 95.5 48 C 95.5 54.41267395019531 94.24417877197266 60.63327407836914 91.76742553710938 66.48899078369141 C 89.37505340576172 72.14520263671875 85.95005035400391 77.22509002685547 81.58757781982422 81.58757781982422 C 77.22509002685547 85.95005035400391 72.14520263671875 89.37505340576172 66.48899078369141 91.76742553710938 C 60.63327407836914 94.24417877197266 54.41267395019531 95.5 48 95.5 Z" stroke="none"/>
        <path d="M 48 1 C 42.96623992919922 1 38.01137161254883 1.788322448730469 33.27305221557617 3.343055725097656 C 28.71118927001953 4.839889526367188 24.45562744140625 7.00927734375 20.62448120117188 9.791015625 C 17.63892364501953 11.95826721191406 14.9071044921875 14.46080017089844 12.50492095947266 17.22906494140625 C 10.09486389160156 20.00642395019531 8.014213562011719 23.05418395996094 6.320732116699219 26.28769683837891 C 4.599983215332031 29.57324981689453 3.274932861328125 33.05920028686523 2.382362365722656 36.6486930847168 C 1.465095520019531 40.33753204345703 1 44.15666580200195 1 48 C 1 54.34540176391602 2.242530822753906 60.50046539306641 4.693077087402344 66.29421234130859 C 7.060256958007813 71.89082336425781 10.44926452636719 76.91729736328125 14.76598358154297 81.23401641845703 C 19.08271026611328 85.55073547363281 24.10917663574219 88.93974304199219 29.70578765869141 91.30692291259766 C 35.49953460693359 93.75746917724609 41.65459823608398 95 48 95 C 54.34540176391602 95 60.50046539306641 93.75746917724609 66.29421234130859 91.30692291259766 C 71.89082336425781 88.93974304199219 76.91729736328125 85.55073547363281 81.23401641845703 81.23401641845703 C 85.55073547363281 76.91729736328125 88.93974304199219 71.89082336425781 91.30692291259766 66.29421234130859 C 93.75746917724609 60.50046539306641 95 54.34540176391602 95 48 C 95 41.65459823608398 93.75746917724609 35.49953460693359 91.30692291259766 29.70578765869141 C 88.93974304199219 24.10917663574219 85.55073547363281 19.08271026611328 81.23401641845703 14.76598358154297 C 76.91729736328125 10.44926452636719 71.89082336425781 7.060256958007813 66.29421234130859 4.693077087402344 C 60.50046539306641 2.242530822753906 54.34540176391602 1 48 1 M 48 0 C 74.50966644287109 0 96 21.49033355712891 96 48 C 96 74.50966644287109 74.50966644287109 96 48 96 C 21.49033355712891 96 0 74.50966644287109 0 48 C 0 32.01478576660156 7.813972473144531 17.8546142578125 20.03702545166016 8.981758117675781 C 27.74221038818359 3.387130737304688 37.47554779052734 0 48 0 Z" stroke="none" fill="#707070"/>
      </g>
    </g>
  </g>
</svg>
